<?xml version="1.0" encoding="UTF-8"?>
<svg version="1.1" xmlns="http://www.w3.org/2000/svg" width="472" height="482">
<path d="M0 0 C155.76 0 311.52 0 472 0 C472 159.06 472 318.12 472 482 C316.24 482 160.48 482 0 482 C0 322.94 0 163.88 0 0 Z " fill="#FCFBFB" transform="translate(0,0)"/>
<path d="M0 0 C-0.3003866 8.41082468 -3.23077661 15.47110898 -6.30859375 23.18969727 C-6.89334489 24.72074588 -7.39228139 26.28414983 -7.87109375 27.8515625 C-12.33928946 40.31303564 -19.61388903 52.80789135 -28 63 C-28.41217773 63.50934082 -28.82435547 64.01868164 -29.24902344 64.54345703 C-51.68346912 92.19731174 -85.4884157 116.97985572 -121.75 121.6875 C-122.8225 121.790625 -123.895 121.89375 -125 122 C-125.36518795 114.49023751 -123.98279181 107.48078128 -122.5625 100.125 C-122.33240234 98.89007813 -122.10230469 97.65515625 -121.86523438 96.3828125 C-120.14560599 87.29121197 -120.14560599 87.29121197 -119 85 C-116.30369107 83.88904866 -113.61502118 82.86622574 -110.875 81.875 C-85.97111921 72.47455745 -66.0601102 57.11864383 -51 35 C-50.28972656 33.96101563 -49.57945312 32.92203125 -48.84765625 31.8515625 C-43.84435266 24.15560577 -40.81548827 16.66397033 -38 8 C-37.67 7.34 -37.34 6.68 -37 6 C-35.015625 5.76171875 -35.015625 5.76171875 -32.25 5.6875 C-25.02251651 5.23360007 -18.21509262 3.51120442 -11.21191406 1.72729492 C-10.33760742 1.50662354 -9.46330078 1.28595215 -8.5625 1.05859375 C-7.78003906 0.85548584 -6.99757813 0.65237793 -6.19140625 0.44311523 C-4 0 -4 0 0 0 Z " fill="#841824" transform="translate(384,276)"/>
<path d="M0 0 C14.52070881 1.77081815 27.92156398 7.72566545 41 14 C41.66950684 14.31839844 42.33901367 14.63679688 43.02880859 14.96484375 C57.08783413 21.74638021 68.69407565 31.31178343 80 42 C80.81984375 42.76699219 81.6396875 43.53398437 82.484375 44.32421875 C93.15776625 54.61641745 101.06206741 65.99683074 108 79 C108.58394531 80.02867187 109.16789062 81.05734375 109.76953125 82.1171875 C113.94171352 89.82112678 116.74975728 97.73895634 119.4375 106.0625 C119.96923828 107.70569214 119.96923828 107.70569214 120.51171875 109.38208008 C121.97684604 114.07506593 123.21578805 118.04472161 123 123 C115.53276971 122.36130343 108.46071759 120.84134559 101.1875 119.0625 C100.06923828 118.79759766 98.95097656 118.53269531 97.79882812 118.25976562 C85.85122121 115.37141194 85.85122121 115.37141194 83.875 112.1875 C83.58625 111.465625 83.2975 110.74375 83 110 C82.66355469 109.18917969 82.32710938 108.37835938 81.98046875 107.54296875 C81.35798681 105.92848372 80.75410688 104.30660471 80.17578125 102.67578125 C70.08483999 75.0512588 45.75490086 54.54177525 20 42 C16.77768136 40.63243986 13.51452231 39.41864898 10.1875 38.328125 C7.07531318 36.438583 6.98538771 34.45128405 6 31 C5.54594667 28.97520336 5.12900071 26.94179174 4.74609375 24.90234375 C4.53146484 23.77119141 4.31683594 22.64003906 4.09570312 21.47460938 C3.87849609 20.30736328 3.66128906 19.14011719 3.4375 17.9375 C2.99874912 15.61327158 2.55994891 13.28905248 2.12109375 10.96484375 C1.9295874 9.9399585 1.73808105 8.91507324 1.54077148 7.85913086 C1.04457108 5.23565323 0.52893667 2.61705011 0 0 Z " fill="#821723" transform="translate(262,92)"/>
<path d="M0 0 C3.5386994 1.65139305 4.81070153 2.71605229 7 6 C7.18365409 8.50766709 7.25246496 10.90227493 7.22705078 13.40893555 C7.22734283 14.16039856 7.22763489 14.91186157 7.22793579 15.68609619 C7.22654253 18.16975453 7.21098166 20.65311282 7.1953125 23.13671875 C7.19158235 24.85878841 7.18873539 26.5808602 7.18673706 28.30293274 C7.17910073 32.83543762 7.15945225 37.36781432 7.1373291 41.90026855 C7.11687067 46.52529161 7.10773535 51.15033537 7.09765625 55.77539062 C7.07620635 64.85031673 7.0420704 73.92514771 7 83 C7.7734375 83.2990625 8.546875 83.598125 9.34375 83.90625 C15.52682876 86.45222361 18.28801229 90.37467715 21.0546875 96.2734375 C23.19867548 102.45733672 22.82332871 109.09667633 20 115 C15.91223229 122.53491511 10.00703206 126.212742 2 129 C-4.74709908 130.38325483 -9.92472521 128.72751101 -15.859375 125.43359375 C-18.56470098 123.62181522 -20.3664076 121.8216596 -22 119 C-22 118.01 -22 117.02 -22 116 C-22.81574997 115.99635437 -23.63149994 115.99270874 -24.4719696 115.98895264 C-32.16722233 115.95105439 -39.8619919 115.89418153 -47.5569334 115.81609726 C-51.51282577 115.77662144 -55.46849551 115.74443373 -59.42456055 115.72900391 C-63.24386903 115.7138376 -67.0625655 115.67939369 -70.88160133 115.63169098 C-72.33715298 115.61687669 -73.79279202 115.60895895 -75.24841881 115.60811615 C-77.29086595 115.60574464 -79.33162418 115.57865602 -81.3737793 115.54589844 C-82.53515915 115.53701599 -83.696539 115.52813354 -84.89311218 115.51898193 C-88.66143861 114.88951172 -90.2872871 113.64218548 -93 111 C-95.4434877 107.33476845 -95.84707648 104.26029643 -95 100 C-92.5625 97.0625 -92.5625 97.0625 -90 95 C-89.505 94.505 -89.505 94.505 -89 94 C-86.94443339 93.90586313 -84.88559819 93.88257002 -82.82788086 93.88647461 C-82.18399918 93.88632858 -81.54011749 93.88618256 -80.87672424 93.8860321 C-78.73939697 93.88673115 -76.60215587 93.89452309 -74.46484375 93.90234375 C-72.98653715 93.90420796 -71.50822993 93.90563185 -70.02992249 93.90663147 C-66.13201198 93.91045641 -62.23413851 93.92028648 -58.33624268 93.93133545 C-54.36153667 93.94155008 -50.38682471 93.9461292 -46.41210938 93.95117188 C-38.608056 93.96190878 -30.80403318 93.97898491 -23 94 C-22.867146 93.21214111 -22.73429199 92.42428223 -22.59741211 91.61254883 C-21.88896325 88.51442408 -21.00268961 87.65081264 -18.5625 85.6875 C-17.94503906 85.17574219 -17.32757813 84.66398437 -16.69140625 84.13671875 C-15 83 -15 83 -13 83 C-13.01332367 82.06341049 -13.02664734 81.12682098 -13.04037476 80.16184998 C-13.16219571 71.31978516 -13.25203887 62.47789139 -13.31087303 53.63517666 C-13.34213805 49.08935408 -13.38452121 44.54421089 -13.45263672 39.9987793 C-13.51800367 35.60910972 -13.55374236 31.22009206 -13.56926346 26.82997322 C-13.58031893 25.1582113 -13.60190857 23.48648363 -13.63438034 21.81500053 C-13.9092477 7.07513738 -13.9092477 7.07513738 -10.18603516 2.45727539 C-6.99204276 -0.58646377 -4.34475672 -0.78995577 0 0 Z " fill="#841B27" transform="translate(234,140)"/>
<path d="M0 0 C0.29456002 7.36400045 0.03387756 14.88603008 -2 22 C-4.81613852 24.08149369 -5.74310564 24.40366723 -9 25 C-28.94085661 30.66221854 -45.06025375 41.87854971 -60 56 C-60.89589844 56.81984375 -61.79179687 57.6396875 -62.71484375 58.484375 C-72.31394417 67.58534538 -79.19343371 78.07163539 -85.1875 89.8125 C-85.52273682 90.46283203 -85.85797363 91.11316406 -86.20336914 91.78320312 C-87.99399006 95.41842464 -89.30061925 98.89932328 -90.27734375 102.8359375 C-92.86738087 112.56363504 -92.86738087 112.56363504 -96 116 C-103.07989833 119.71897944 -112.04130474 121 -120 121 C-120.2009567 116.67943096 -119.61457721 113.95831831 -118 110 C-117.46590892 107.98263007 -116.94653334 105.96133788 -116.4375 103.9375 C-105.48484838 65.44215093 -77.33185418 33.70032267 -42.94848633 14.19628906 C-35.19954837 9.93934983 -27.40177163 6.70504801 -19 4 C-17.18628906 3.38511719 -17.18628906 3.38511719 -15.3359375 2.7578125 C-10.01228448 1.01530756 -5.64339114 -0.21769758 0 0 Z " fill="#841924" transform="translate(201,94)"/>
<path d="M0 0 C3.0183394 0.26476661 5.99652 0.60738824 9 1 C10.26457031 1.14953125 11.52914062 1.2990625 12.83203125 1.453125 C14.18015573 1.6531188 15.52781788 1.85625388 16.875 2.0625 C18.15117188 2.23910156 19.42734375 2.41570312 20.7421875 2.59765625 C24 4 24 4 25.0246582 5.64868164 C25.82385003 7.74506822 26.43316492 9.8298244 27 12 C33.01975211 30.37713104 42.89709572 45.82503992 56 60 C56.74765625 60.81726563 57.4953125 61.63453125 58.265625 62.4765625 C63.94344255 68.41988951 70.30596116 73.25542194 77 78 C77.86625 78.61488281 78.7325 79.22976563 79.625 79.86328125 C84.45836398 83.21179865 84.45836398 83.21179865 90 85 C90 85.66 90 86.32 90 87 C90.52207031 87.17015625 91.04414063 87.3403125 91.58203125 87.515625 C96.89608906 89.26526225 102.18530816 91.07059359 107.4140625 93.0625 C109.89912299 94.02138948 109.89912299 94.02138948 112.1484375 94.5 C114 95 114 95 117 97 C120.06723501 104.17960196 120.5592201 112.27875215 121 120 C113.02098285 120.35757439 106.34594592 117.72738809 99 115 C97.99582031 114.62746094 96.99164063 114.25492187 95.95703125 113.87109375 C56.44806209 98.23099148 25.43874014 67.81857633 7.88427734 29.14404297 C5.81233424 24.1203532 4.40104175 18.88888625 3.0078125 13.64453125 C2.09949962 10.09854534 2.09949962 10.09854534 0.875 7.1875 C-0.13480892 4.66297771 -0.15396332 2.69435805 0 0 Z " fill="#831824" transform="translate(81,276)"/>
<path d="M0 0 C-0.14147461 0.58120605 -0.28294922 1.16241211 -0.42871094 1.76123047 C-1.96260277 8.60982837 -2.31048828 15.12186127 -2.25 22.125 C-2.24613281 23.21288818 -2.24226563 24.30077637 -2.23828125 25.42163086 C-2.14613675 34.07361529 -1.42442992 42.4661386 0 51 C-5.42248645 50.62603542 -10.23476481 49.71727069 -15.44140625 48.140625 C-22.66921151 46.03479723 -29.93096329 44.45925625 -37.3125 43 C-39.87663594 42.48081277 -42.44044121 41.95998969 -45.00390625 41.4375 C-46.21836426 41.19 -47.43282227 40.9425 -48.68408203 40.6875 C-54.71312638 39.43747873 -60.69505709 38.02321108 -66.67626953 36.5625 C-69.4781114 35.88426469 -72.28387173 35.22343744 -75.08984375 34.5625 C-86.13638734 31.95160348 -97.1372756 29.30351189 -108 26 C-108 25.34 -108 24.68 -108 24 C-83.03649071 17.65582321 -58.05001502 11.65128809 -32.81347656 6.47631836 C-26.0429355 5.06418118 -19.3492431 3.36762842 -12.67016602 1.57397461 C-8.33366835 0.44141699 -4.52713985 -0.26244289 0 0 Z " fill="#841A25" transform="translate(115,220)"/>
<path d="M0 0 C0.66 0 1.32 0 2 0 C7.56048952 19.82150972 12.45083512 40.08082239 15.9375 60.375 C16.82493311 65.39408893 18.05699015 70.29495521 19.3190918 75.23144531 C20.90653503 81.5049623 22.35018927 87.80713766 23.75 94.125 C23.97276611 95.10887695 24.19553223 96.09275391 24.42504883 97.10644531 C25.45655348 101.81564677 26.29422746 106.14524694 26 111 C25.2678125 110.855625 24.535625 110.71125 23.78125 110.5625 C15.73628875 109.18336379 7.90235361 108.78013809 -0.25 108.75 C-1.25482422 108.74097656 -2.25964844 108.73195313 -3.29492188 108.72265625 C-9.7519118 108.74812761 -15.72374019 109.48361142 -22 111 C-21.88444496 109.29100181 -21.75706997 107.58280131 -21.625 105.875 C-21.55539063 104.92367187 -21.48578125 103.97234375 -21.4140625 102.9921875 C-20.97143368 99.79356792 -20.03265837 97.05574743 -19 94 C-18.4824219 91.45817665 -18.00201208 88.92960605 -17.5625 86.375 C-16.69362851 81.50229734 -15.72280418 76.7216878 -14.4375 71.9375 C-13.3498552 67.78015719 -12.70504085 63.77151251 -12.25 59.5 C-11.18379012 50.61185384 -8.86731431 42.06457223 -6.56347656 33.42578125 C-4.70678254 26.34276335 -3.34621163 19.36352683 -2.42431641 12.09741211 C-1.8618585 7.99159881 -0.97191878 4.02652066 0 0 Z " fill="#811924" transform="translate(230,14)"/>
<path d="M0 0 C9.29400572 1.578007 18.42646811 3.68421526 27.59179688 5.87695312 C34.45728191 7.50420176 34.45728191 7.50420176 41.42578125 8.55859375 C45 9 45 9 47.50976562 9.85351562 C52.41025201 11.4632445 57.40052237 12.59892131 62.41796875 13.78515625 C63.51216629 14.04630722 64.60636383 14.30745819 65.73371887 14.57652283 C69.21771642 15.40770827 72.70254537 16.23533739 76.1875 17.0625 C79.68305222 17.89369933 83.17841596 18.72567126 86.67341614 19.55918884 C88.84550291 20.07705772 91.01792783 20.59351078 93.1907196 21.1084137 C94.17216446 21.34213181 95.15360931 21.57584991 96.16479492 21.81665039 C97.02828049 22.02157608 97.89176605 22.22650177 98.78141785 22.43763733 C100.54156475 22.88379656 102.27736897 23.42578966 104 24 C104 24.66 104 25.32 104 26 C89.74112599 29.95983111 75.43576226 33.69855494 61.06185913 37.21609497 C59.45360837 37.60970363 57.84570976 38.00475435 56.2381897 38.40133667 C48.15523659 40.39214179 40.13692922 42.23323503 31.90429688 43.50561523 C26.35938668 44.44949916 20.90567018 45.8166456 15.4375 47.125 C13.14524977 47.67228906 10.85231064 48.21670323 8.55859375 48.7578125 C7.56142334 48.9964502 6.56425293 49.23508789 5.53686523 49.48095703 C3 50 3 50 0 50 C0.0721875 49.35160156 0.144375 48.70320313 0.21875 48.03515625 C0.97730023 40.01770172 1.11108008 32.04977619 1.125 24 C1.12951172 22.90179932 1.13402344 21.80359863 1.13867188 20.67211914 C1.13673828 19.62531982 1.13480469 18.57852051 1.1328125 17.5 C1.13168457 16.5615625 1.13055664 15.623125 1.12939453 14.65625 C1.00033567 12.00689075 0.53663555 9.59276921 0 7 C-0.03824623 4.66698014 -0.04574284 2.33288492 0 0 Z " fill="#841723" transform="translate(352,220)"/>
<path d="M0 0 C0.70640625 0.144375 1.4128125 0.28875 2.140625 0.4375 C9.29797019 1.73229611 16.17342787 2.19282752 23.4375 2.1875 C24.28924805 2.18814453 25.14099609 2.18878906 26.01855469 2.18945312 C30.46395125 2.15090416 34.61667817 1.80627526 39 1 C41.67810075 0.88803927 44.31732686 0.95374701 47 1 C46.84917969 2.02222656 46.69835937 3.04445313 46.54296875 4.09765625 C46.21788185 6.43407219 45.91951435 8.77479558 45.67578125 11.12109375 C44.66155089 20.3800354 42.59427189 29.17862387 40.20825195 38.17163086 C38.93608132 43.01409981 37.82325043 47.79217349 37.05859375 52.7421875 C35.87525541 60.25925578 33.95549023 67.57606383 32.0625 74.9375 C31.36376931 77.67524508 30.66778028 80.41368093 29.97265625 83.15234375 C29.72112289 84.14081802 29.72112289 84.14081802 29.46450806 85.14926147 C27.87887332 91.41124395 26.41962445 97.69843355 25 104 C24.34 103.67 23.68 103.34 23 103 C22.30151367 100.75366211 22.30151367 100.75366211 21.66796875 97.77734375 C21.42925049 96.68921387 21.19053223 95.60108398 20.94458008 94.47998047 C20.69474365 93.31096191 20.44490723 92.14194336 20.1875 90.9375 C18.50400514 83.3123499 16.79654275 75.78217252 14.3125 68.375 C12.26768116 62.13667967 10.94260838 55.98631377 9.8203125 49.5234375 C8.82024713 43.83899283 7.59478523 38.2031379 6.375 32.5625 C6.15650391 31.53632568 5.93800781 30.51015137 5.71289062 29.45288086 C5.50599609 28.50034424 5.29910156 27.54780762 5.0859375 26.56640625 C4.9007959 25.70990479 4.7156543 24.85340332 4.52490234 23.97094727 C4.17971667 22.01261117 4.17971667 22.01261117 3 21 C2.43125095 18.41852762 1.91554361 15.84836144 1.4375 13.25 C1.29892578 12.53328125 1.16035156 11.8165625 1.01757812 11.078125 C0.31896179 7.33381676 -0.17331819 3.82807128 0 0 Z " fill="#821824" transform="translate(208,363)"/>
<path d="M0 0 C1.16337891 0.00966797 2.32675781 0.01933594 3.52539062 0.02929688 C4.74033203 0.05443359 5.95527344 0.07957031 7.20703125 0.10546875 C8.43357422 0.11900391 9.66011719 0.13253906 10.92382812 0.14648438 C13.95616789 0.18188134 16.98763121 0.23126115 20.01953125 0.29296875 C22.130715 4.12001499 22.41910017 6.89771059 22.01953125 11.29296875 C20.8671875 12.97851562 20.8671875 12.97851562 19.01953125 14.29296875 C14.71746824 14.96712585 10.36851663 14.80230134 6.01953125 14.79296875 C4.818125 14.82132813 3.61671875 14.8496875 2.37890625 14.87890625 C1.2290625 14.88148438 0.07921875 14.8840625 -1.10546875 14.88671875 C-2.68714844 14.89735352 -2.68714844 14.89735352 -4.30078125 14.90820312 C-6.98046875 14.29296875 -6.98046875 14.29296875 -8.85546875 11.95117188 C-10.28881214 8.56440043 -10.04288698 6.7837715 -8.98046875 3.29296875 C-6.47746279 -0.22841963 -4.14685725 -0.06068572 0 0 Z " fill="#8A222E" transform="translate(312.98046875,236.70703125)"/>
<path d="M0 0 C3.76892354 0.61533445 4.7181802 1.53914647 7.0625 4.5 C7.58007812 7.18554688 7.58007812 7.18554688 7.59375 10.21875 C7.59890625 11.31574219 7.6040625 12.41273438 7.609375 13.54296875 C7.59390625 14.68378906 7.5784375 15.82460938 7.5625 17 C7.57796875 18.14082031 7.5934375 19.28164063 7.609375 20.45703125 C7.60421875 21.55402344 7.5990625 22.65101563 7.59375 23.78125 C7.58923828 24.78220703 7.58472656 25.78316406 7.58007812 26.81445312 C6.92534131 30.21167247 5.76726738 31.40227544 3.0625 33.5 C0 34 0 34 -2.9375 33.5 C-5.99631872 30.41326742 -6.32154092 28.03989502 -6.3359375 23.78125 C-6.33980469 22.68425781 -6.34367188 21.58726562 -6.34765625 20.45703125 C-6.33605469 19.31621094 -6.32445312 18.17539062 -6.3125 17 C-6.32410156 15.85917969 -6.33570313 14.71835937 -6.34765625 13.54296875 C-6.34378906 12.44597656 -6.33992187 11.34898437 -6.3359375 10.21875 C-6.33255371 9.21779297 -6.32916992 8.21683594 -6.32568359 7.18554688 C-5.69982591 2.85571387 -4.37216627 0.74419851 0 0 Z " fill="#811A27" transform="translate(229.9375,318.5)"/>
<path d="M0 0 C0.928125 0.0825 1.85625 0.165 2.8125 0.25 C2.214375 0.518125 1.61625 0.78625 1 1.0625 C-1.28900391 2.30510212 -2.5790977 3.20706171 -4.1875 5.25 C-4.69229657 7.8568023 -4.69229657 7.8568023 -4.69921875 10.79296875 C-4.73466797 11.86611328 -4.77011719 12.93925781 -4.80664062 14.04492188 C-4.82919922 15.16447266 -4.85175781 16.28402344 -4.875 17.4375 C-4.90916016 18.56865234 -4.94332031 19.69980469 -4.97851562 20.86523438 C-5.06106314 23.6600574 -5.13019182 26.45456398 -5.1875 29.25 C-5.5175 29.25 -5.8475 29.25 -6.1875 29.25 C-6.2746142 25.16680116 -6.32793048 21.08384136 -6.375 17 C-6.40013672 15.84113281 -6.42527344 14.68226563 -6.45117188 13.48828125 C-6.46083984 12.37324219 -6.47050781 11.25820313 -6.48046875 10.109375 C-6.4961792 9.08295898 -6.51188965 8.05654297 -6.52807617 6.99902344 C-5.96257198 2.43445194 -4.66251485 0.36568744 0 0 Z " fill="#8B2532" transform="translate(230.1875,318.75)"/>
<path d="M0 0 C0.66 0.33 1.32 0.66 2 1 C-0.97 3.97 -3.94 6.94 -7 10 C-7.33 9.34 -7.66 8.68 -8 8 C-3.375 2.25 -3.375 2.25 0 0 Z " fill="#97353F" transform="translate(219,223)"/>
<path d="M0 0 C1.4540625 0.0309375 1.4540625 0.0309375 2.9375 0.0625 C2.1021875 0.43375 2.1021875 0.43375 1.25 0.8125 C-1.46221127 2.27856015 -3.69837365 4.09239471 -6.0625 6.0625 C-3.76028481 0.07674051 -3.76028481 0.07674051 0 0 Z " fill="#A14B56" transform="translate(230.0625,318.9375)"/>
</svg>
