<svg version="1.1" id="Layer_1" xmlns="http://www.w3.org/2000/svg" xmlns:xlink="http://www.w3.org/1999/xlink" x="0px" y="0px"
	 width="100%" viewBox="0 0 1024 1024" enable-background="new 0 0 1024 1024" xml:space="preserve">
<path fill="#000000" opacity="1.000000" stroke="none" 
	d="
M634.299805,575.300049 
	C635.757568,571.897034 637.465942,568.930603 638.240845,565.737488 
	C639.479248,560.634460 642.408325,558.582581 647.534180,557.802429 
	C657.222900,556.327881 666.799438,554.113159 676.418640,552.186401 
	C678.341492,551.801208 680.241455,551.161621 682.216553,551.760010 
	C683.294373,554.334900 682.283203,556.544922 681.707703,558.719666 
	C666.798157,615.061462 632.315857,654.515442 579.067322,677.889709 
	C568.789124,682.401489 558.093750,685.347107 547.218262,687.787476 
	C542.329651,688.884399 541.679626,688.148865 542.567688,683.115356 
	C544.326965,673.143372 546.235901,663.196899 547.896790,653.208923 
	C548.591248,649.032227 550.467773,646.537292 554.699646,645.112610 
	C573.397095,638.818054 590.098816,629.101685 604.408936,615.371521 
	C616.519470,603.751770 627.036560,590.984741 634.299805,575.300049 
z"/>
<path fill="#000000" opacity="1.000000" stroke="none" 
	d="
M659.626587,479.537659 
	C647.289490,478.112427 639.833069,473.144562 634.756348,460.693451 
	C620.620117,426.022614 593.607178,403.707672 559.292664,389.919495 
	C555.615662,388.442017 553.769592,386.517517 553.066528,382.597778 
	C551.159180,371.964233 548.834412,361.405823 546.722412,350.808228 
	C546.505676,349.720398 545.985291,348.545715 547.511108,346.541534 
	C577.622864,352.860474 604.668030,366.101440 628.154480,386.634094 
	C658.022766,412.745880 676.189331,445.491425 684.170715,485.408997 
	C675.393616,483.311035 667.711731,481.474854 659.626587,479.537659 
z"/>
<path fill="#000000" opacity="1.000000" stroke="none" 
	d="
M500.828430,411.453064 
	C502.421814,403.845947 505.327148,400.779572 511.376923,400.266724 
	C516.423035,399.838959 519.929871,402.286102 522.326904,406.606567 
	C523.443054,408.618317 523.335327,410.770996 523.337524,412.931335 
	C523.362183,437.412445 523.453613,461.893860 523.338135,486.374329 
	C523.320557,490.090973 524.291382,492.309662 527.686340,494.338013 
	C536.456787,499.578033 540.426453,508.062073 539.901855,517.936096 
	C539.277832,529.683105 533.411743,538.486023 521.949341,542.610535 
	C512.135315,546.141907 502.932831,544.770386 494.791382,538.021240 
	C493.537262,536.981567 492.231171,535.644165 491.688354,534.171875 
	C489.784424,529.007629 486.039093,528.137878 481.040405,528.273621 
	C463.733521,528.743469 446.409637,527.918579 429.098999,528.851807 
	C425.798462,529.029846 422.426239,528.766113 419.148468,528.286682 
	C413.150391,527.409363 409.502838,523.301208 409.185913,517.539246 
	C408.864685,511.699951 412.391632,506.773712 418.186310,505.374847 
	C420.255646,504.875305 422.471527,504.844849 424.621277,504.837738 
	C444.106171,504.773254 463.591370,504.718597 483.076141,504.778290 
	C486.158600,504.787720 488.484436,504.267578 489.987549,501.171143 
	C491.462677,498.132324 493.964966,495.691895 496.921051,494.151733 
	C500.105682,492.492523 500.795563,490.143616 500.786316,486.843872 
	C500.716217,461.863373 500.782288,436.882446 500.828430,411.453064 
z"/>
<path fill="#000000" opacity="1.000000" stroke="none" 
	d="
M477.390564,363.258484 
	C477.115906,371.866211 473.443542,375.708679 465.096191,378.742737 
	C420.815765,394.837555 390.543152,425.428009 375.468781,470.308929 
	C373.289215,476.798065 370.472137,480.397125 363.380829,480.931519 
	C357.316223,481.388550 351.343018,483.058533 343.910370,484.459503 
	C351.780518,445.788879 369.636169,414.045715 398.199615,388.293091 
	C421.421783,367.356110 448.476746,354.359985 480.266602,348.151886 
	C479.121765,354.103790 478.282166,358.468750 477.390564,363.258484 
z"/>
<path fill="#000000" opacity="1.000000" stroke="none" 
	d="
M385.585449,589.457581 
	C403.917847,621.135986 429.948425,643.361816 464.187531,655.051392 
	C472.728210,657.967285 476.959686,661.701294 477.615875,670.445801 
	C477.995331,675.502258 480.292725,680.331604 480.376038,686.792908 
	C449.944672,680.591736 423.491760,667.595764 400.461304,647.766418 
	C370.773560,622.205017 351.837769,590.234680 344.155060,551.920166 
	C346.144653,550.385132 347.596161,551.070923 349.018555,551.382385 
	C355.029816,552.698853 361.015564,554.143311 367.052612,555.326660 
	C370.500763,556.002563 372.514862,557.567261 373.525116,561.171570 
	C376.274261,570.979919 380.513275,580.211060 385.585449,589.457581 
z"/>
<path fill="#000000" opacity="1.000000" stroke="none" 
	d="
M377.538727,545.733154 
	C338.490540,536.871033 299.773987,528.453796 261.297791,518.592102 
	C262.227112,515.666626 264.126678,515.824646 265.648926,515.469971 
	C303.258545,506.707306 340.871674,497.959717 378.494110,489.252350 
	C382.695618,488.279907 383.768799,489.337891 382.701294,493.569153 
	C378.703857,509.413269 379.180145,525.268372 382.683899,541.066406 
	C383.737091,545.815063 382.224731,546.924805 377.538727,545.733154 
z"/>
<path fill="#000000" opacity="1.000000" stroke="none" 
	d="
M646.350098,542.128662 
	C649.394104,525.532166 649.815857,509.335419 646.072021,493.174286 
	C645.130371,489.109619 647.093384,488.513184 650.479797,489.304718 
	C674.308105,494.874146 698.150635,500.382446 721.975464,505.966400 
	C734.129089,508.814941 746.263977,511.744965 758.386841,514.721558 
	C760.732483,515.297485 763.376160,515.290527 765.142700,517.271912 
	C765.083984,519.062012 763.749207,519.020752 762.669006,519.297058 
	C725.742920,528.740967 688.484985,536.751343 651.274292,544.958618 
	C649.517456,545.346069 645.786133,547.606384 646.350098,542.128662 
z"/>
<path fill="#000000" opacity="1.000000" stroke="none" 
	d="
M527.196289,321.027893 
	C531.798523,342.037018 536.336365,362.631531 541.177917,384.604584 
	C522.328796,380.665558 504.461151,379.314026 485.014435,385.032715 
	C493.954224,342.367462 502.572174,301.238251 511.240082,259.870575 
	C514.085327,260.658722 513.906189,262.939667 514.310303,264.685547 
	C518.623291,283.319061 522.868225,301.968323 527.196289,321.027893 
z"/>
<path fill="#000000" opacity="1.000000" stroke="none" 
	d="
M536.403809,665.332886 
	C529.847961,699.140503 522.315308,732.287903 513.495544,765.387878 
	C502.342560,727.001160 493.839569,688.144653 485.108490,649.328186 
	C487.755096,647.951721 489.991760,648.856934 492.197510,649.359924 
	C505.881348,652.480469 519.578796,652.360168 533.286499,649.579773 
	C539.475891,648.324463 539.969116,648.825134 538.564392,655.166504 
	C537.845825,658.410034 537.161072,661.661011 536.403809,665.332886 
z"/>
<path fill="#000000" opacity="1.000000" stroke="none" 
	d="
M503.366577,627.330078 
	C503.252136,621.075012 503.056427,615.260864 503.161621,609.452209 
	C503.278168,603.018494 506.321594,599.544250 511.325134,599.702148 
	C516.391052,599.862061 519.294800,603.453857 519.313049,609.604126 
	C519.330322,615.417847 519.354797,621.231628 519.337708,627.045288 
	C519.319885,633.131226 516.588623,636.573059 511.703674,636.743652 
	C506.615479,636.921387 504.087677,634.184692 503.366577,627.330078 
z"/>
<path fill="#000000" opacity="1.000000" stroke="none" 
	d="
M592.649536,512.993286 
	C594.344543,509.858398 596.737061,508.695679 599.827209,508.706024 
	C606.812866,508.729431 613.801025,508.608276 620.783630,508.756531 
	C625.644470,508.859741 628.879517,512.295776 628.955627,516.994751 
	C629.028198,521.476074 626.086792,524.249817 620.779907,524.326599 
	C614.128845,524.422852 607.474548,524.275818 600.821594,524.262817 
	C593.489624,524.248535 590.797058,520.750366 592.649536,512.993286 
M605.519348,516.400574 
	C604.795776,513.844238 602.861633,513.879333 600.853455,514.330872 
	C599.798950,514.568054 599.263977,515.425537 599.395691,516.536987 
	C599.564453,517.960144 600.384399,519.008545 601.733154,519.358215 
	C603.647095,519.854553 604.784851,518.774597 605.519348,516.400574 
z"/>
</svg>